<svg xmlns="http://www.w3.org/2000/svg" width="1448" height="1086" viewBox="0 0 1448 1086"><g stroke-linejoin="round" stroke-linecap="round"><defs><clipPath id="panes"><rect x="480" y="143" width="105" height="103"/><rect x="594" y="143" width="97" height="103"/><rect x="703" y="143" width="96" height="103"/><rect x="480" y="260" width="105" height="93"/><rect x="594" y="260" width="97" height="93"/><rect x="703" y="260" width="96" height="93"/><rect x="480" y="369" width="319" height="176"/></clipPath></defs><g clip-path="url(#panes)"><path d="M485 156l-8 27" stroke="#c2d3d8" stroke-opacity=".22" stroke-width="1.7"/><path d="M558 245l-8 27" stroke="#c2d3d8" stroke-opacity=".22" stroke-width="1.7"/><path d="M631 334l-8 27" stroke="#c2d3d8" stroke-opacity=".22" stroke-width="1.7"/><path d="M704 423l-8 27" stroke="#c2d3d8" stroke-opacity=".22" stroke-width="1.7"/><path d="M777 512l-8 27" stroke="#c2d3d8" stroke-opacity=".22" stroke-width="1.7"/><path d="M542 169l-8 27" stroke="#c2d3d8" stroke-opacity=".22" stroke-width="1.7"/><path d="M615 258l-8 27" stroke="#c2d3d8" stroke-opacity=".22" stroke-width="1.7"/><path d="M688 347l-8 27" stroke="#c2d3d8" stroke-opacity=".22" stroke-width="1.7"/><path d="M761 436l-8 27" stroke="#c2d3d8" stroke-opacity=".22" stroke-width="1.7"/><path d="M526 525l-8 27" stroke="#c2d3d8" stroke-opacity=".22" stroke-width="1.7"/><path d="M599 182l-8 27" stroke="#c2d3d8" stroke-opacity=".22" stroke-width="1.7"/><path d="M672 271l-8 27" stroke="#c2d3d8" stroke-opacity=".22" stroke-width="1.7"/><path d="M745 360l-8 27" stroke="#c2d3d8" stroke-opacity=".22" stroke-width="1.7"/><path d="M510 449l-8 27" stroke="#c2d3d8" stroke-opacity=".22" stroke-width="1.7"/><path d="M583 538l-8 27" stroke="#c2d3d8" stroke-opacity=".22" stroke-width="1.7"/><path d="M656 195l-8 27" stroke="#c2d3d8" stroke-opacity=".22" stroke-width="1.7"/><path d="M729 284l-8 27" stroke="#c2d3d8" stroke-opacity=".22" stroke-width="1.7"/><path d="M494 373l-8 27" stroke="#c2d3d8" stroke-opacity=".22" stroke-width="1.7"/><path d="M567 462l-8 27" stroke="#c2d3d8" stroke-opacity=".22" stroke-width="1.7"/><path d="M640 551l-8 27" stroke="#c2d3d8" stroke-opacity=".22" stroke-width="1.7"/><path d="M713 208l-8 27" stroke="#c2d3d8" stroke-opacity=".22" stroke-width="1.7"/><path d="M786 297l-8 27" stroke="#c2d3d8" stroke-opacity=".22" stroke-width="1.7"/><path d="M551 386l-8 27" stroke="#c2d3d8" stroke-opacity=".22" stroke-width="1.7"/><path d="M624 475l-8 27" stroke="#c2d3d8" stroke-opacity=".22" stroke-width="1.7"/><path d="M697 132l-8 27" stroke="#c2d3d8" stroke-opacity=".22" stroke-width="1.7"/><path d="M770 221l-8 27" stroke="#c2d3d8" stroke-opacity=".22" stroke-width="1.7"/></g></g></svg>