<svg xmlns="http://www.w3.org/2000/svg" width="1448" height="1086" viewBox="0 0 1448 1086"><g stroke-linejoin="round" stroke-linecap="round"><defs><clipPath id="panes"><rect x="480" y="143" width="105" height="103"/><rect x="594" y="143" width="97" height="103"/><rect x="703" y="143" width="96" height="103"/><rect x="480" y="260" width="105" height="93"/><rect x="594" y="260" width="97" height="93"/><rect x="703" y="260" width="96" height="93"/><rect x="480" y="369" width="319" height="176"/></clipPath></defs><g clip-path="url(#panes)"><path d="M485 125l-8 27" stroke="#c2d3d8" stroke-opacity=".22" stroke-width="1.7"/><path d="M558 214l-8 27" stroke="#c2d3d8" stroke-opacity=".22" stroke-width="1.7"/><path d="M631 303l-8 27" stroke="#c2d3d8" stroke-opacity=".22" stroke-width="1.7"/><path d="M704 392l-8 27" stroke="#c2d3d8" stroke-opacity=".22" stroke-width="1.7"/><path d="M777 481l-8 27" stroke="#c2d3d8" stroke-opacity=".22" stroke-width="1.7"/><path d="M542 138l-8 27" stroke="#c2d3d8" stroke-opacity=".22" stroke-width="1.7"/><path d="M615 227l-8 27" stroke="#c2d3d8" stroke-opacity=".22" stroke-width="1.7"/><path d="M688 316l-8 27" stroke="#c2d3d8" stroke-opacity=".22" stroke-width="1.7"/><path d="M761 405l-8 27" stroke="#c2d3d8" stroke-opacity=".22" stroke-width="1.7"/><path d="M526 494l-8 27" stroke="#c2d3d8" stroke-opacity=".22" stroke-width="1.7"/><path d="M599 151l-8 27" stroke="#c2d3d8" stroke-opacity=".22" stroke-width="1.7"/><path d="M672 240l-8 27" stroke="#c2d3d8" stroke-opacity=".22" stroke-width="1.7"/><path d="M745 329l-8 27" stroke="#c2d3d8" stroke-opacity=".22" stroke-width="1.7"/><path d="M510 418l-8 27" stroke="#c2d3d8" stroke-opacity=".22" stroke-width="1.7"/><path d="M583 507l-8 27" stroke="#c2d3d8" stroke-opacity=".22" stroke-width="1.7"/><path d="M656 164l-8 27" stroke="#c2d3d8" stroke-opacity=".22" stroke-width="1.7"/><path d="M729 253l-8 27" stroke="#c2d3d8" stroke-opacity=".22" stroke-width="1.7"/><path d="M494 342l-8 27" stroke="#c2d3d8" stroke-opacity=".22" stroke-width="1.7"/><path d="M567 431l-8 27" stroke="#c2d3d8" stroke-opacity=".22" stroke-width="1.7"/><path d="M640 520l-8 27" stroke="#c2d3d8" stroke-opacity=".22" stroke-width="1.7"/><path d="M713 177l-8 27" stroke="#c2d3d8" stroke-opacity=".22" stroke-width="1.7"/><path d="M786 266l-8 27" stroke="#c2d3d8" stroke-opacity=".22" stroke-width="1.7"/><path d="M551 355l-8 27" stroke="#c2d3d8" stroke-opacity=".22" stroke-width="1.7"/><path d="M624 444l-8 27" stroke="#c2d3d8" stroke-opacity=".22" stroke-width="1.7"/><path d="M697 533l-8 27" stroke="#c2d3d8" stroke-opacity=".22" stroke-width="1.7"/><path d="M770 190l-8 27" stroke="#c2d3d8" stroke-opacity=".22" stroke-width="1.7"/></g></g></svg>