<svg xmlns="http://www.w3.org/2000/svg" width="1448" height="1086" viewBox="0 0 1448 1086"><g stroke-linejoin="round" stroke-linecap="round"><text x="110" y="140" font-family="DejaVu Sans" font-size="38" fill="#e6dcc4" text-anchor="start">LISTENING CHANNELS</text><text x="110" y="194" font-family="DejaVu Sans" font-size="28" fill="#e6dcc4" text-anchor="start">Isolate live playback before addressing a witness.</text><text x="110" y="280" font-family="DejaVu Sans" font-size="27" fill="#e6dcc4" text-anchor="start">MOTOR</text><rect x="600" y="230" width="630" height="103" rx="0" fill="#e0d5ba" stroke="#172b36" stroke-width="3"/><text x="915" y="292" font-family="DejaVu Sans" font-size="25" fill="#172b36" text-anchor="middle">SEAL CUTS IDENTIFY THE SOCKET</text><rect x="150" y="398" width="340" height="338" rx="5" fill="#d8c9a8" stroke="#172b36" stroke-width="3"/><text x="320" y="470" font-family="DejaVu Sans" font-size="48" fill="#172b36" text-anchor="middle">A</text><path d="M320.0 497 L320.0 526" fill="none" stroke="#172b36" stroke-width="7"/><text x="320" y="711" font-family="DejaVu Sans" font-size="22" fill="#172b36" text-anchor="middle">LIVE</text><rect x="554" y="398" width="340" height="338" rx="5" fill="#d8c9a8" stroke="#172b36" stroke-width="3"/><text x="724" y="470" font-family="DejaVu Sans" font-size="48" fill="#172b36" text-anchor="middle">B</text><path d="M711.5 497 L711.5 526" fill="none" stroke="#172b36" stroke-width="7"/><path d="M736.5 497 L736.5 526" fill="none" stroke="#172b36" stroke-width="7"/><text x="724" y="711" font-family="DejaVu Sans" font-size="22" fill="#172b36" text-anchor="middle">LIVE</text><rect x="958" y="398" width="340" height="338" rx="5" fill="#d8c9a8" stroke="#172b36" stroke-width="3"/><text x="1128" y="470" font-family="DejaVu Sans" font-size="48" fill="#172b36" text-anchor="middle">C</text><path d="M1103.0 497 L1103.0 526" fill="none" stroke="#172b36" stroke-width="7"/><path d="M1128.0 497 L1128.0 526" fill="none" stroke="#172b36" stroke-width="7"/><path d="M1153.0 497 L1153.0 526" fill="none" stroke="#172b36" stroke-width="7"/><text x="1128" y="711" font-family="DejaVu Sans" font-size="22" fill="#172b36" text-anchor="middle">WITNESS LINE</text><text x="724" y="1010" font-family="DejaVu Sans" font-size="24" fill="#e6dcc4" text-anchor="middle">The indicator records the circuit, not the speaker.</text></g></svg>
