<svg xmlns="http://www.w3.org/2000/svg" xmlns:xlink="http://www.w3.org/1999/xlink" width="1448" height="1086" viewBox="0 0 1448 1086"><g id="p07solved-0" opacity="1"><svg x="0" y="0" width="1448" height="1086" viewBox="0 0 1448 1086" preserveAspectRatio="none" overflow="hidden"><image x="0" y="0" width="1448" height="1086" xlink:href="../../../assets/kitchen/puzzle/r05_p07_panel.png"/></svg></g><g id="p07solved-1" opacity="1"><svg x="50" y="180" width="970" height="730" viewBox="0 0 970 730" preserveAspectRatio="none" overflow="hidden"><image x="0" y="0" width="970" height="730" xlink:href="../../../assets/kitchen/puzzle/r05_place_cloth.png"/></svg></g><g id="p07solved-2" opacity="1"><svg x="1060" y="374" width="96" height="80" viewBox="0 0 96 80" preserveAspectRatio="none" overflow="hidden"><image x="0" y="0" width="96" height="80" xlink:href="../../../assets/kitchen/puzzle/r05_tally_minus.png"/></svg></g><g id="p07solved-3" opacity="1"><svg x="1282" y="374" width="96" height="80" viewBox="0 0 96 80" preserveAspectRatio="none" overflow="hidden"><image x="0" y="0" width="96" height="80" xlink:href="../../../assets/kitchen/puzzle/r05_tally_plus.png"/></svg></g><g id="p07solved-4" opacity="1"><svg x="1070" y="616" width="298" height="90" viewBox="0 0 298 90" preserveAspectRatio="none" overflow="hidden"><image x="0" y="0" width="298" height="90" xlink:href="../../../assets/kitchen/puzzle/r05_compare.png"/></svg></g><g id="p07solved-5" opacity="1"><svg x="1070" y="728" width="298" height="76" viewBox="0 0 298 76" preserveAspectRatio="none" overflow="hidden"><image x="0" y="0" width="298" height="76" xlink:href="../../../assets/kitchen/puzzle/r05_clear_places.png"/></svg></g><g id="p07solved-6" opacity="1"><svg x="1070" y="821" width="298" height="76" viewBox="0 0 298 76" preserveAspectRatio="none" overflow="hidden"><image x="0" y="0" width="298" height="76" xlink:href="../../../assets/kitchen/puzzle/r05_inspect_ledger.png"/></svg></g><g id="p07solved-7" opacity="1"><svg x="1208" y="960" width="180" height="76" viewBox="0 0 180 76" preserveAspectRatio="none" overflow="hidden"><image x="0" y="0" width="180" height="76" xlink:href="../../../assets/kitchen/puzzle/r05_back.png"/></svg></g><g id="p07solved-8" opacity="1"><svg x="1144" y="250" width="150" height="110" viewBox="0 0 150 110" preserveAspectRatio="none" overflow="hidden"><image x="0" y="0" width="150" height="110" xlink:href="../../../assets/kitchen/puzzle/r05_tally_9.png"/></svg></g><g id="p07solved-9" opacity="1"><svg x="145" y="250" width="160" height="160" viewBox="0 0 200 200" preserveAspectRatio="none" overflow="hidden"><image x="0" y="0" width="200" height="200" xlink:href="../../../assets/kitchen/puzzle/r05_bowl_nb.png"/></svg></g><g id="p07solved-10" opacity="1"><svg x="445" y="250" width="160" height="160" viewBox="0 0 200 200" preserveAspectRatio="none" overflow="hidden"><image x="0" y="0" width="200" height="200" xlink:href="../../../assets/kitchen/puzzle/r05_bowl_sr.png"/></svg></g><g id="p07solved-11" opacity="1"><svg x="745" y="250" width="160" height="160" viewBox="0 0 200 200" preserveAspectRatio="none" overflow="hidden"><image x="0" y="0" width="200" height="200" xlink:href="../../../assets/kitchen/puzzle/r05_bowl_ti.png"/></svg></g><g id="p07solved-12" opacity="1"><svg x="145" y="470" width="160" height="160" viewBox="0 0 200 200" preserveAspectRatio="none" overflow="hidden"><image x="0" y="0" width="200" height="200" xlink:href="../../../assets/kitchen/puzzle/r05_bowl_al.png"/></svg></g><g id="p07solved-13" opacity="1"><svg x="445" y="470" width="160" height="160" viewBox="0 0 200 200" preserveAspectRatio="none" overflow="hidden"><image x="0" y="0" width="200" height="200" xlink:href="../../../assets/kitchen/puzzle/r05_bowl_cm.png"/></svg></g><g id="p07solved-14" opacity="1"><svg x="745" y="470" width="160" height="160" viewBox="0 0 200 200" preserveAspectRatio="none" overflow="hidden"><image x="0" y="0" width="200" height="200" xlink:href="../../../assets/kitchen/puzzle/r05_bowl_dh.png"/></svg></g><g id="p07solved-15" opacity="1"><svg x="145" y="690" width="160" height="160" viewBox="0 0 200 200" preserveAspectRatio="none" overflow="hidden"><image x="0" y="0" width="200" height="200" xlink:href="../../../assets/kitchen/puzzle/r05_bowl_ep.png"/></svg></g><g id="p07solved-16" opacity="1"><svg x="445" y="690" width="160" height="160" viewBox="0 0 200 200" preserveAspectRatio="none" overflow="hidden"><image x="0" y="0" width="200" height="200" xlink:href="../../../assets/kitchen/puzzle/r05_bowl_jw.png"/></svg></g><g id="p07solved-17" opacity="1"><svg x="745" y="690" width="160" height="160" viewBox="0 0 200 200" preserveAspectRatio="none" overflow="hidden"><image x="0" y="0" width="200" height="200" xlink:href="../../../assets/kitchen/puzzle/r05_bowl_unsigned.png"/></svg></g></svg>