<svg xmlns="http://www.w3.org/2000/svg" xmlns:xlink="http://www.w3.org/1999/xlink" width="1448" height="1086" viewBox="0 0 1448 1086"><g id="p09initial-0" opacity="1"><svg x="0" y="0" width="1448" height="1086" viewBox="0 0 1448 1086" preserveAspectRatio="none" overflow="hidden"><image x="0" y="0" width="1448" height="1086" xlink:href="../../../assets/kitchen/puzzle/r05_p09_panel.png"/></svg></g><g id="p09initial-1" opacity="1"><svg x="320" y="195" width="456" height="180" viewBox="0 0 456 180" preserveAspectRatio="none" overflow="hidden"><image x="0" y="0" width="456" height="180" xlink:href="../../../assets/kitchen/puzzle/r05_token_socket.png"/></svg></g><g id="p09initial-2" opacity="1"><svg x="1110" y="837" width="280" height="96" viewBox="0 0 280 96" preserveAspectRatio="none" overflow="hidden"><image x="0" y="0" width="280" height="96" xlink:href="../../../assets/kitchen/puzzle/r05_stamp.png"/></svg></g><g id="p09initial-3" opacity="1"><svg x="60" y="853" width="335" height="76" viewBox="0 0 335 76" preserveAspectRatio="none" overflow="hidden"><image x="0" y="0" width="335" height="76" xlink:href="../../../assets/kitchen/puzzle/r05_read_rule.png"/></svg></g><g id="p09initial-4" opacity="1"><svg x="1208" y="960" width="180" height="76" viewBox="0 0 180 76" preserveAspectRatio="none" overflow="hidden"><image x="0" y="0" width="180" height="76" xlink:href="../../../assets/kitchen/puzzle/r05_back.png"/></svg></g><g id="p09initial-5" opacity="1"><svg x="470" y="757" width="140" height="140" viewBox="0 0 140 140" preserveAspectRatio="none" overflow="hidden"><image x="0" y="0" width="140" height="140" xlink:href="../../../assets/kitchen/puzzle/r05_seal_1.png"/></svg></g><g id="p09initial-6" opacity="1"><svg x="660" y="757" width="140" height="140" viewBox="0 0 140 140" preserveAspectRatio="none" overflow="hidden"><image x="0" y="0" width="140" height="140" xlink:href="../../../assets/kitchen/puzzle/r05_seal_2.png"/></svg></g><g id="p09initial-7" opacity="1"><svg x="850" y="757" width="140" height="140" viewBox="0 0 140 140" preserveAspectRatio="none" overflow="hidden"><image x="0" y="0" width="140" height="140" xlink:href="../../../assets/kitchen/puzzle/r05_seal_3.png"/></svg></g><g id="p09initial-8" opacity="1"><svg x="460" y="617" width="116" height="76" viewBox="0 0 116 76" preserveAspectRatio="none" overflow="hidden"><image x="0" y="0" width="116" height="76" xlink:href="../../../assets/kitchen/puzzle/r05_previous.png"/></svg></g><g id="p09initial-9" opacity="1"><svg x="604" y="617" width="116" height="76" viewBox="0 0 116 76" preserveAspectRatio="none" overflow="hidden"><image x="0" y="0" width="116" height="76" xlink:href="../../../assets/kitchen/puzzle/r05_next.png"/></svg></g><g id="p09initial-10" opacity="1"><svg x="750" y="617" width="116" height="76" viewBox="0 0 116 76" preserveAspectRatio="none" overflow="hidden"><image x="0" y="0" width="116" height="76" xlink:href="../../../assets/kitchen/puzzle/r05_previous.png"/></svg></g><g id="p09initial-11" opacity="1"><svg x="894" y="617" width="116" height="76" viewBox="0 0 116 76" preserveAspectRatio="none" overflow="hidden"><image x="0" y="0" width="116" height="76" xlink:href="../../../assets/kitchen/puzzle/r05_next.png"/></svg></g><g id="p09initial-12" opacity="1"><svg x="1040" y="617" width="116" height="76" viewBox="0 0 116 76" preserveAspectRatio="none" overflow="hidden"><image x="0" y="0" width="116" height="76" xlink:href="../../../assets/kitchen/puzzle/r05_previous.png"/></svg></g><g id="p09initial-13" opacity="1"><svg x="1184" y="617" width="116" height="76" viewBox="0 0 116 76" preserveAspectRatio="none" overflow="hidden"><image x="0" y="0" width="116" height="76" xlink:href="../../../assets/kitchen/puzzle/r05_next.png"/></svg></g><g id="p09initial-14" opacity="1"><svg x="460" y="500" width="260" height="100" viewBox="0 0 260 100" preserveAspectRatio="none" overflow="hidden"><image x="0" y="0" width="260" height="100" xlink:href="../../../assets/kitchen/puzzle/r05_delta_0.png"/></svg></g><g id="p09initial-15" opacity="1"><svg x="750" y="500" width="260" height="100" viewBox="0 0 260 100" preserveAspectRatio="none" overflow="hidden"><image x="0" y="0" width="260" height="100" xlink:href="../../../assets/kitchen/puzzle/r05_name_bell.png"/></svg></g><g id="p09initial-16" opacity="1"><svg x="1040" y="500" width="260" height="100" viewBox="0 0 260 100" preserveAspectRatio="none" overflow="hidden"><image x="0" y="0" width="260" height="100" xlink:href="../../../assets/kitchen/puzzle/r05_status_absent.png"/></svg></g><g id="p09initial-17" opacity="1"><svg x="460" y="747" width="160" height="160" viewBox="0 0 160 160" preserveAspectRatio="none" overflow="hidden"><image x="0" y="0" width="160" height="160" xlink:href="../../../assets/kitchen/puzzle/r05_seal_selected.png"/></svg></g></svg>