<svg xmlns="http://www.w3.org/2000/svg" width="1448" height="1086" viewBox="0 0 1448 1086"><g stroke-linejoin="round" stroke-linecap="round"><defs><clipPath id="panes"><rect x="1112" y="137" width="81" height="112" rx="0" fill="#fff" stroke="#172b36" stroke-width="0"/><rect x="1205" y="137" width="83" height="112" rx="0" fill="#fff" stroke="#172b36" stroke-width="0"/><rect x="1302" y="137" width="78" height="112" rx="0" fill="#fff" stroke="#172b36" stroke-width="0"/><rect x="1112" y="261" width="81" height="94" rx="0" fill="#fff" stroke="#172b36" stroke-width="0"/><rect x="1205" y="261" width="83" height="94" rx="0" fill="#fff" stroke="#172b36" stroke-width="0"/><rect x="1302" y="261" width="78" height="94" rx="0" fill="#fff" stroke="#172b36" stroke-width="0"/><rect x="1112" y="372" width="268" height="207" rx="0" fill="#fff" stroke="#172b36" stroke-width="0"/></clipPath></defs><g clip-path="url(#panes)"><path d="M1110 181 l-7 23" stroke="#d2dfe0" stroke-opacity=".27" stroke-width="1.6"/><path d="M1181 264 l-7 23" stroke="#d2dfe0" stroke-opacity=".27" stroke-width="1.6"/><path d="M1252 347 l-7 23" stroke="#d2dfe0" stroke-opacity=".27" stroke-width="1.6"/><path d="M1323 430 l-7 23" stroke="#d2dfe0" stroke-opacity=".27" stroke-width="1.6"/><path d="M1110 513 l-7 23" stroke="#d2dfe0" stroke-opacity=".27" stroke-width="1.6"/><path d="M1181 129 l-7 23" stroke="#d2dfe0" stroke-opacity=".27" stroke-width="1.6"/><path d="M1252 212 l-7 23" stroke="#d2dfe0" stroke-opacity=".27" stroke-width="1.6"/><path d="M1323 295 l-7 23" stroke="#d2dfe0" stroke-opacity=".27" stroke-width="1.6"/><path d="M1110 378 l-7 23" stroke="#d2dfe0" stroke-opacity=".27" stroke-width="1.6"/><path d="M1181 461 l-7 23" stroke="#d2dfe0" stroke-opacity=".27" stroke-width="1.6"/><path d="M1252 544 l-7 23" stroke="#d2dfe0" stroke-opacity=".27" stroke-width="1.6"/><path d="M1323 160 l-7 23" stroke="#d2dfe0" stroke-opacity=".27" stroke-width="1.6"/><path d="M1110 243 l-7 23" stroke="#d2dfe0" stroke-opacity=".27" stroke-width="1.6"/><path d="M1181 326 l-7 23" stroke="#d2dfe0" stroke-opacity=".27" stroke-width="1.6"/><path d="M1252 409 l-7 23" stroke="#d2dfe0" stroke-opacity=".27" stroke-width="1.6"/><path d="M1323 492 l-7 23" stroke="#d2dfe0" stroke-opacity=".27" stroke-width="1.6"/><path d="M1110 575 l-7 23" stroke="#d2dfe0" stroke-opacity=".27" stroke-width="1.6"/><path d="M1181 191 l-7 23" stroke="#d2dfe0" stroke-opacity=".27" stroke-width="1.6"/><path d="M1252 274 l-7 23" stroke="#d2dfe0" stroke-opacity=".27" stroke-width="1.6"/><path d="M1323 357 l-7 23" stroke="#d2dfe0" stroke-opacity=".27" stroke-width="1.6"/><path d="M1110 440 l-7 23" stroke="#d2dfe0" stroke-opacity=".27" stroke-width="1.6"/><path d="M1181 523 l-7 23" stroke="#d2dfe0" stroke-opacity=".27" stroke-width="1.6"/><path d="M1252 139 l-7 23" stroke="#d2dfe0" stroke-opacity=".27" stroke-width="1.6"/><path d="M1323 222 l-7 23" stroke="#d2dfe0" stroke-opacity=".27" stroke-width="1.6"/><path d="M1110 305 l-7 23" stroke="#d2dfe0" stroke-opacity=".27" stroke-width="1.6"/><path d="M1181 388 l-7 23" stroke="#d2dfe0" stroke-opacity=".27" stroke-width="1.6"/><path d="M1252 471 l-7 23" stroke="#d2dfe0" stroke-opacity=".27" stroke-width="1.6"/><path d="M1323 554 l-7 23" stroke="#d2dfe0" stroke-opacity=".27" stroke-width="1.6"/><path d="M1110 170 l-7 23" stroke="#d2dfe0" stroke-opacity=".27" stroke-width="1.6"/><path d="M1181 253 l-7 23" stroke="#d2dfe0" stroke-opacity=".27" stroke-width="1.6"/><path d="M1252 336 l-7 23" stroke="#d2dfe0" stroke-opacity=".27" stroke-width="1.6"/><path d="M1323 419 l-7 23" stroke="#d2dfe0" stroke-opacity=".27" stroke-width="1.6"/><path d="M1110 502 l-7 23" stroke="#d2dfe0" stroke-opacity=".27" stroke-width="1.6"/><path d="M1181 585 l-7 23" stroke="#d2dfe0" stroke-opacity=".27" stroke-width="1.6"/><path d="M1252 201 l-7 23" stroke="#d2dfe0" stroke-opacity=".27" stroke-width="1.6"/><path d="M1323 284 l-7 23" stroke="#d2dfe0" stroke-opacity=".27" stroke-width="1.6"/><path d="M1110 367 l-7 23" stroke="#d2dfe0" stroke-opacity=".27" stroke-width="1.6"/><path d="M1181 450 l-7 23" stroke="#d2dfe0" stroke-opacity=".27" stroke-width="1.6"/><path d="M1252 533 l-7 23" stroke="#d2dfe0" stroke-opacity=".27" stroke-width="1.6"/><path d="M1323 149 l-7 23" stroke="#d2dfe0" stroke-opacity=".27" stroke-width="1.6"/><path d="M1110 232 l-7 23" stroke="#d2dfe0" stroke-opacity=".27" stroke-width="1.6"/><path d="M1181 315 l-7 23" stroke="#d2dfe0" stroke-opacity=".27" stroke-width="1.6"/><path d="M1252 398 l-7 23" stroke="#d2dfe0" stroke-opacity=".27" stroke-width="1.6"/></g></g></svg>
